<?xml version="1.0" encoding="UTF-8"?>
<svg id="capa_1" data-name="capa 1" xmlns="http://www.w3.org/2000/svg" version="1.1" viewBox="0 0 500 240">
  <defs>
    <style>
      .cls-1 {
        fill: #ed8dbe;
      }

      .cls-1, .cls-2 {
        stroke-width: 0px;
      }

      .cls-3 {
        fill: #f4bbd8;
      }

      .cls-3, .cls-4 {
        stroke: #000;
        stroke-linecap: round;
        stroke-miterlimit: 10;
        stroke-width: 6px;
      }

      .cls-2, .cls-5 {
        fill: #000;
      }

      .cls-6 {
        fill: #1d1d1b;
        font-size: 65.8px;
      }

      .cls-6, .cls-5 {
        font-family: Linotte-Bold, Linotte-Bold;
        font-weight: 700;
      }

      .cls-6, .cls-5, .cls-7 {
        isolation: isolate;
      }

      .cls-5 {
        font-size: 43.1px;
      }

      .cls-4 {
        fill: none;
      }
    </style>
  </defs>
  <g>
    <g class="cls-7">
      <text class="cls-6" transform="translate(-4058.4 -660.3)"><tspan x="0" y="0">C</tspan></text>
      <text class="cls-6" transform="translate(-4018.3 -660.3)"><tspan x="0" y="0">O</tspan></text>
      <text class="cls-6" transform="translate(-3969.3 -660.3)"><tspan x="0" y="0">P</tspan></text>
      <text class="cls-6" transform="translate(-3930.9 -660.3)"><tspan x="0" y="0">U</tspan></text>
      <text class="cls-6" transform="translate(-3885.2 -660.3)"><tspan x="0" y="0">C</tspan></text>
      <text class="cls-6" transform="translate(-3845.1 -660.3)"><tspan x="0" y="0">H</tspan></text>
      <text class="cls-6" transform="translate(-3798.6 -660.3)"><tspan x="0" y="0">A</tspan></text>
    </g>
    <g class="cls-7">
      <text class="cls-5" transform="translate(-4058.4 -714.7)"><tspan x="0" y="0">L</tspan></text>
      <text class="cls-5" transform="translate(-4036.5 -714.7)"><tspan x="0" y="0">A</tspan></text>
    </g>
  </g>
  <g>
    <g>
      <g>
        <path class="cls-2" d="M294.7,112.3c.6-15.2,1.1-23.9,22.1-24.5s152.2.3,165.4,0c13.2-.3,15.2,9.8,15.5,18.1s.3,105,0,111.9-5.2,16.1-15.8,16.1h-171.1c-10.1,0-16.2-7.8-16.1-18.7s-.4-92.7,0-103h0Z"/>
        <path class="cls-3" d="M314.3,123.4c2.6-16.5,13.3-18.3,30.8-20s65.1-2.5,83.2,2.1,16.8,13.8,18.9,25.2c2.1,11.4,2.5,47.7-1.7,66.4s-10.4,18.8-33.3,20.8c-22.9,2.1-65.4,1.2-84.8-2.9-25.6-5.4-14.3-84.3-13.1-91.7h0Z"/>
        <path class="cls-1" d="M470.2,127.4c-5.3,0-12.5,6.2-8.6,13.7,4.6,8.9,15.7,6,17.6-2.1,1.7-7.1-5-11.6-9-11.6h0Z"/>
        <path class="cls-1" d="M463,191.4c3.8,3.8,13.2,4.4,15.8-3.6,3-9.6-6.8-15.3-13.9-11-6.2,3.9-4.7,11.7-1.9,14.5h0Z"/>
      </g>
      <polyline class="cls-4" points="377.8 7 390.6 74.4 445.5 22.9"/>
      <path class="cls-2" d="M408.7,84.3c.2-11.5-10.9-18.5-17.8-18.5s-18.9,7.9-18.8,18.5h36.6Z"/>
    </g>
    <g>
      <path class="cls-2" d="M49.3,140c0,1.7-.5,3.1-1.4,4.2-.8,1.1-2.1,1.6-3.8,1.6-1.2,0-2.6-.5-4.4-1.2-3-1.2-6-1.9-9-1.9-4.4,0-8.2,1.9-11.5,5.6s-4.9,8.6-5,14.5c0,5.4,1.6,9.8,5,13.3,3.4,3.5,7.3,5.3,11.8,5.3,3.2,0,6.4-.8,9.7-2.4,2.1-1.1,3.5-1.6,4.5-1.5,1.5,0,2.7.7,3.6,2,.9,1.3,1.3,2.8,1.2,4.4,0,2.3-2.2,4.4-6.4,6.2s-8.8,2.7-13.7,2.6c-7.6-.1-14.2-2.9-19.8-8.2s-8.4-12.5-8.2-21.5c0-6.2,1.6-11.8,4.5-16.7,3-4.9,6.7-8.6,11.1-11.1,4.4-2.5,9.1-3.6,13.9-3.5,5.2,0,9.5.8,12.9,2.4,3.3,1.4,4.9,3.4,4.8,5.8h0Z"/>
      <path class="cls-2" d="M61.2,133.7c1.2-.9,2.8-1.4,4.8-1.4h3.5c5.3,0,10.3,0,14.9,0s7.1,0,7.5,0c1.7,0,3,.4,3.9,1.3s1.3,2.1,1.4,3.5c.1,3-.9,4.8-3.1,5.5-1.2.2-7.8.3-19.6.3h-3.1v6.1l-.2,8v.6h2.8c4.9,0,9.3,0,13-.2,2.3,0,3.9.3,5,1,1,.7,1.5,2.1,1.4,4.3-.1,3.4-1.9,5.1-5.4,5.1h-17.1c0,1,0,2.6,0,4.9v9c7.1,0,12.7,0,16.9-.2.8,0,1.7,0,2.9,0s2,0,2.5,0c3.2,0,4.8,1.8,4.8,5.3s-1.8,5.6-5.5,5.7h-24.2c-3.5,0-6-.4-7.3-1.1-1.3-.8-2.1-2.3-2.2-4.7-.1-1.2-.2-2.1,0-2.9,0-.2,0-1.5,0-3.9s.1-5.8.2-10,0-8.1,0-11.7,0-5.7,0-10.2,0-7.9,0-10.1c0-1.8.7-3.1,1.9-4h0Z"/>
      <path class="cls-2" d="M117.6,132.2c.6,0,2.2,0,4.7,0s4,0,4.4,0c8.9.1,16.4,2.6,22.5,7.6,6.1,4.9,9.1,11.8,9.1,20.5,0,21.1-11.2,31.7-33.7,31.9-7,0-11.1,0-12.4-.2-1.3-.2-2.5-.8-3.6-2-1-1.1-1.5-2.5-1.5-4v-18.5c0,0,0-28.4,0-28.4,0-4.6,3.6-6.9,10.7-6.9h0ZM119.4,143.1v35.9c0,.7.2,1.2.4,1.5.3.3.7.5,1.1.5s1.2,0,2.2,0h.9c14.7,0,22-6.6,22-19.8s-1.9-10.6-5.7-13.7c-3.8-3.1-8.6-4.6-14.3-4.6s-5.2,0-6.6,0h0Z"/>
      <path class="cls-2" d="M170.1,133.7c1.2-.9,2.8-1.4,4.8-1.4h3.5c5.4,0,10.3,0,14.9,0s7.1,0,7.5,0c1.7,0,3,.4,3.9,1.3s1.4,2.1,1.4,3.5c.1,3-.9,4.8-3.1,5.5-1.2.2-7.8.3-19.6.3h-3.1v6.1l-.2,8v.6h2.8c4.9,0,9.3,0,13-.2,2.3,0,3.9.3,5,1,1,.7,1.5,2.1,1.4,4.3-.1,3.4-1.9,5.1-5.4,5.1h-17.1c0,1,0,2.6,0,4.9v9c7.1,0,12.7,0,16.9-.2.8,0,1.7,0,2.9,0s2,0,2.5,0c3.2,0,4.8,1.8,4.8,5.3s-1.8,5.6-5.5,5.7h-24.1c-3.5,0-5.9-.4-7.3-1.1-1.3-.8-2.1-2.3-2.2-4.7-.1-1.2-.1-2.1,0-2.9,0-.2,0-1.5,0-3.9s.1-5.8.2-10,0-8.1,0-11.7,0-5.7,0-10.2,0-7.9,0-10.1c0-1.8.7-3.1,1.9-4h0Z"/>
      <path class="cls-2" d="M244.5,132.3c5.1,0,8.5-.1,10.3-.1,3.4,0,5.1,1.7,5.1,5.1s-1.7,5.9-5.2,5.9h-13.2c0,0,0,3.4,0,3.4,0,5.7,0,19,.3,39.8,0,2.1-.5,3.6-1.7,4.6s-2.8,1.5-4.9,1.5c-3.9,0-5.8-1.9-5.7-5.7l.2-31.7c0-1.5,0-3.4,0-5.9s0-4.4,0-6c-2.2,0-6.8,0-13.8,0s-4.9-1.9-4.9-5.6,1.7-5.3,5.2-5.4c.3,0,1.1,0,2.5,0s3.6,0,6.6,0h11.3c.4,0,3.1,0,8.2-.1h0Z"/>
      <path class="cls-2" d="M267.1,140.1c-1.3-1.6-1.8-3.4-1.5-5.7.4-1.8,1.3-3.2,2.7-4.2s3-1.5,4.7-1.5,4,.7,5.3,2c1.2,1.3,1.9,3,1.9,5s-.7,3.9-2.2,5.1-3.4,1.7-5.6,1.7-3.9-.8-5.2-2.3h0ZM268.5,152.5c1.1-.9,2.5-1.3,4-1.3,4.1,0,6.2,1.9,6.3,5.6,0,2.2,0,5.5,0,9.9,0,4.4,0,7.6,0,9.8v10.7c0,1.8-.5,3.1-1.6,4.1s-2.6,1.4-4.5,1.4-3.2-.4-4.3-1.2-1.7-2-1.7-3.6v-31.5c0-1.8.7-3.1,1.8-3.9h0Z"/>
      <path class="cls-2" d="M364.8,132.4c5.5,0,8.4,0,8.7,0,2.1,0,3.1.7,3.1,2.1s-.3,1.7-.8,2c-.5.3-1.5.5-2.8.5h-17.3v6.2c0,2.7,0,5.8,0,9.2s0,8.6.1,15.4.1,13.9.2,21.3c0,1.2-.2,2.1-.6,2.7s-1.1.8-2.1.8-1.4-.2-1.8-.7-.5-1.2-.5-2.4v-33.8c0-2.1,0-5.2,0-9.3s0-7.3,0-9.3c-6.2,0-12.3,0-18.5,0-1.6,0-2.4-.8-2.4-2.3s.2-1.2.7-1.6,1-.7,1.8-.7,1.5,0,3,0,3.7,0,6.7,0h11.1c2.1,0,5.8,0,11.3,0h0Z"/>
      <path class="cls-2" d="M380.9,134.6c0-.6.3-1.2.9-1.7.6-.5,1.2-.7,1.9-.7,1.1,0,1.9.6,2.3,1.9.3.8.9,2.4,1.7,4.6s1.5,3.9,1.8,4.9l16.8,42.7c.4-1,1-2.4,1.7-4.4s1.2-3.2,1.4-3.8l16.9-43.7c.6-1.5,1.4-2.3,2.5-2.3s1.3.2,1.9.6c.6.4.8.9.8,1.5s-.3,1.3-.9,2.9c0,.2-2.7,6.7-8,19.5l-.9,2.5c-.4,1.2-1,2.6-1.6,4.2s-1.4,3.5-2.2,5.6l-8.3,20.6c-.9,1.9-2.1,2.8-3.5,2.8s-1.6-.3-2.1-.8-.9-1.4-1.4-2.7c-.6-1.8-1.5-3.9-2.4-6.4s-2.1-5.2-3.3-8.1c-1.2-2.9-3.3-7.9-6.1-14.9s-5.9-14.4-9-22.2c-.5-1.2-.8-2-.8-2.6h0Z"/>
    </g>
  </g>
</svg>