<?xml version="1.0" encoding="UTF-8"?>
<svg id="Capa_1" data-name="Capa 1" xmlns="http://www.w3.org/2000/svg" version="1.1" viewBox="0 0 320 440">
  <defs>
    <style>
      .cls-1 {
        stroke: #000;
        stroke-linecap: round;
        stroke-miterlimit: 10;
        stroke-width: 14px;
      }

      .cls-1, .cls-2 {
        fill: #fff;
      }

      .cls-3 {
        fill: #000;
      }

      .cls-3, .cls-2 {
        stroke-width: 0px;
      }
    </style>
  </defs>
  <g>
    <path class="cls-2" d="M192.91,270.22c-4.15,0-8.17-1.23-11.58-3.44-3.42,2.21-7.44,3.44-11.58,3.44s-8.17-1.23-11.58-3.44c-3.42,2.21-7.44,3.44-11.58,3.44s-8.17-1.23-11.58-3.44c-3.42,2.21-7.44,3.44-11.58,3.44-9.84,0-17.38-8.05-20.17-16.88-55.5-14.72-88.47-50.63-88.47-96.71,0-32.04,15.55-65.16,42.67-90.87,28.35-26.87,64.78-41.67,102.57-41.67s74.22,14.8,102.57,41.67c27.12,25.71,42.67,58.83,42.67,90.87,0,47.41-34.49,83.71-92.51,97.74-3.05,8.41-10.44,15.85-19.82,15.85Z"/>
    <path class="cls-3" d="M160,31.1c76.35,0,138.24,64.16,138.24,125.54,0,48.09-38,80.21-91.18,91.86-1.15,7.26-7.05,14.73-14.15,14.73-4.76,0-8.97-2.33-11.58-5.9-2.61,3.57-6.82,5.9-11.59,5.9s-8.97-2.33-11.58-5.9c-2.61,3.57-6.82,5.9-11.59,5.9s-8.97-2.33-11.59-5.9c-2.61,3.57-6.82,5.9-11.58,5.9-7.39,0-13.47-8.08-14.27-15.6-51.18-12.33-87.38-44.05-87.38-90.99,0-61.38,61.89-125.54,138.24-125.54M160,17.1c-20.3,0-40.23,4.07-59.25,12.08-17.8,7.51-33.99,18.11-48.13,31.51C24.11,87.71,7.76,122.68,7.76,156.63c0,48.49,33.54,86.37,90.21,102.52,1.33,2.95,3.09,5.73,5.21,8.21,5.46,6.36,12.64,9.86,20.23,9.86,4.03,0,7.98-.87,11.59-2.49,3.61,1.62,7.55,2.49,11.59,2.49s7.98-.87,11.59-2.49c3.61,1.62,7.55,2.49,11.59,2.49s7.98-.87,11.59-2.49c3.61,1.62,7.55,2.49,11.59,2.49,7.31,0,14.31-3.29,19.7-9.26,2.07-2.29,3.81-4.88,5.19-7.65,26.19-6.85,48.37-18.52,64.49-33.98,19.6-18.81,29.95-42.91,29.95-69.7,0-33.95-16.35-68.93-44.86-95.95-14.14-13.4-30.33-24-48.13-31.51-19.02-8.02-38.95-12.08-59.25-12.08h0Z"/>
  </g>
  <g>
    <g>
      <path class="cls-2" d="M53.99,415.9c-11.6,0-21.7-7.31-24.01-17.38-1.4-6.08-.19-11.52,1.76-15.87-4.59-1.37-9.27-3.84-12-8.28-3.4-5.53-5.39-15.41-1.75-24.02,2.84-6.71,8.64-11.34,16.34-13.06,2.33-.52,4.73-.78,7.11-.78,8.52,0,15.63,3.3,20.32,6.29l176.5-71.68c.87-5.85,3.72-17.6,12.85-24.45,4.2-3.15,9.35-4.81,14.89-4.81,11.6,0,21.7,7.31,24.01,17.38,1.4,6.08.19,11.52-1.76,15.87,4.59,1.37,9.27,3.84,12,8.28,3.4,5.53,5.39,15.41,1.75,24.02-2.84,6.71-8.64,11.34-16.35,13.06-2.33.52-4.73.78-7.11.78h0c-9.12,0-16.64-3.81-21.26-6.91l-175.82,73.82c-1.15,6.35-4.25,16.68-12.59,22.93-4.2,3.15-9.35,4.81-14.89,4.81Z"/>
      <path class="cls-3" d="M266.01,248.88c7.77,0,15.49,4.54,17.19,11.95,2.53,11.01-7.1,19.62-7.1,19.62,0,0,.05,0,.15,0,1.51,0,14.1.19,18.05,6.62,4.2,6.84,5.11,23.19-10.15,26.58-1.92.43-3.79.62-5.59.62-9.77,0-17.43-5.52-20.28-7.91l-183.19,76.91c-.2,2.36-1.72,15.73-10.4,22.23-3.12,2.34-6.91,3.41-10.69,3.41-7.77,0-15.49-4.54-17.19-11.95-2.53-11.01,7.1-19.62,7.1-19.62,0,0-.05,0-.15,0-1.51,0-14.1-.2-18.05-6.62-4.2-6.84-5.11-23.19,10.15-26.58,1.93-.43,3.79-.62,5.59-.62,8.91,0,16.06,4.59,19.42,7.21l184.41-74.89-.38-.96s.89-15.45,10.43-22.6c3.12-2.34,6.91-3.41,10.69-3.41M266.01,234.88h0c-7.07,0-13.67,2.15-19.08,6.21-9.2,6.89-13.13,17.6-14.8,24.99l-169.79,68.96c-5.35-2.88-12.51-5.51-20.88-5.51-2.9,0-5.8.32-8.64.95-9.97,2.22-17.52,8.31-21.27,17.16-4.64,10.95-2.22,23.17,2.23,30.41,2.19,3.57,5.29,6.44,9.27,8.6-.86,4.03-1.02,8.55.11,13.45,1.61,6.99,5.95,13.13,12.23,17.29,5.38,3.56,11.98,5.52,18.6,5.52,7.07,0,13.66-2.15,19.08-6.21,8.59-6.44,12.59-16.14,14.45-23.48l169.17-71.02c5.42,3.08,12.98,6.07,21.86,6.07,2.9,0,5.8-.32,8.64-.95,9.97-2.22,17.52-8.31,21.27-17.16,4.64-10.95,2.22-23.17-2.23-30.41-2.19-3.57-5.29-6.44-9.27-8.6.86-4.03,1.02-8.55-.11-13.45-1.61-6.99-5.95-13.13-12.23-17.29-5.38-3.56-11.98-5.52-18.6-5.52h0Z"/>
    </g>
    <g>
      <path class="cls-2" d="M267.51,415.72c-4.34,0-8.61-1.32-12.7-3.92-10.6-6.74-14.39-17.42-15.74-24.4l-176.52-72.13c-4.63,3.2-12.57,7.57-21.44,7.57-1.24,0-2.47-.09-3.67-.26-8.23-1.18-15.66-6.9-19.38-14.93-3.38-7.28-3.09-15.31.76-21.47,3.32-5.29,8-8.29,12.43-9.99-2.26-4.19-3.81-9.24-2.6-14.32,2.28-9.53,12.04-19.82,23.84-19.82,4.34,0,8.61,1.32,12.7,3.92,10.11,6.43,14,16.64,15.5,23.29l175.5,74.12c4.23-3.12,12.88-8.46,22.7-8.46,1.24,0,2.47.09,3.67.26,8.23,1.18,15.66,6.9,19.38,14.93,3.38,7.28,3.09,15.31-.76,21.47-3.32,5.29-8,8.29-12.43,9.99,2.26,4.19,3.81,9.24,2.6,14.32-2.28,9.53-12.04,19.82-23.84,19.82h0Z"/>
      <path class="cls-3" d="M52.49,249.06c2.79,0,5.81.83,8.95,2.83,9.9,6.3,12.4,17.27,13.02,22.35l183.35,77.44.41-.95s9.86-8.79,20.67-8.79c.89,0,1.78.06,2.68.19,11.8,1.69,19.67,16.18,13.68,25.75-5.21,8.32-15.65,8.87-18.28,8.87-.4,0-.62-.01-.62-.01,0,0,10.05,9.74,8.19,17.55-1.42,5.95-8.1,14.45-17.03,14.45-2.79,0-5.81-.83-8.95-2.83-10.7-6.8-12.75-19.06-13.14-23.46l-183.92-75.15c-1.66,1.4-10.64,8.56-20.39,8.56-.89,0-1.78-.06-2.68-.19-11.8-1.69-19.67-16.18-13.68-25.75,5.21-8.32,15.65-8.87,18.28-8.87.4,0,.62.01.62.01,0,0-10.05-9.74-8.19-17.55,1.42-5.95,8.1-14.45,17.03-14.45M52.49,235.06h0c-15.41,0-27.69,12.81-30.65,25.19-.98,4.08-.81,8.31.48,12.65-3.47,2.24-6.77,5.32-9.43,9.57-5.12,8.17-5.56,18.69-1.18,28.13,4.71,10.15,14.19,17.4,24.74,18.91,1.53.22,3.09.33,4.67.33,8.75,0,16.62-3.43,22.14-6.72l169.83,69.39c2.18,7.97,7.06,18.25,17.97,25.19,5.23,3.33,10.77,5.01,16.46,5.01,15.41,0,27.69-12.81,30.65-25.19.98-4.08.81-8.31-.48-12.65,3.47-2.24,6.77-5.32,9.43-9.57,5.12-8.17,5.56-18.69,1.18-28.13-4.71-10.15-14.19-17.4-24.74-18.91-1.52-.22-3.09-.33-4.66-.33-9.49,0-17.95,4.05-23.47,7.53l-168.85-71.31c-2.3-7.61-7.19-17.45-17.63-24.09-5.23-3.33-10.77-5.01-16.46-5.01h0Z"/>
    </g>
  </g>
  <g>
    <path class="cls-3" d="M132.16,181.92c3.85,0,7.89-1.67,10.61-4.39s4.56-6.87,4.39-10.61-1.45-7.9-4.39-10.61-6.54-4.39-10.61-4.39c-3.85,0-7.89,1.67-10.61,4.39s-4.56,6.87-4.39,10.61,1.45,7.9,4.39,10.61,6.54,4.39,10.61,4.39h0Z"/>
    <path class="cls-3" d="M187.84,181.92c3.85,0,7.89-1.67,10.61-4.39s4.56-6.87,4.39-10.61-1.45-7.9-4.39-10.61-6.54-4.39-10.61-4.39c-3.85,0-7.89,1.67-10.61,4.39s-4.56,6.87-4.39,10.61,1.45,7.9,4.39,10.61,6.54,4.39,10.61,4.39h0Z"/>
  </g>
  <polygon class="cls-3" points="172.55 221.74 147.45 221.74 160 197.24 172.55 221.74"/>
  <line class="cls-1" x1="134.99" y1="261.94" x2="134.99" y2="245.57"/>
  <line class="cls-1" x1="158.26" y1="261.94" x2="158.26" y2="245.57"/>
  <line class="cls-1" x1="181.52" y1="261.94" x2="181.52" y2="245.57"/>
</svg>